<?xml version="1.0" standalone="no"?>
<!DOCTYPE svg PUBLIC "-//W3C//DTD SVG 20010904//EN"
 "http://www.w3.org/TR/2001/REC-SVG-20010904/DTD/svg10.dtd">
<svg version="1.0" xmlns="http://www.w3.org/2000/svg"
 width="192.000000pt" height="192.000000pt" viewBox="0 0 192.000000 192.000000"
 preserveAspectRatio="xMidYMid meet">

<g transform="translate(0.000000,192.000000) scale(0.100000,-0.100000)"
fill="#000000" stroke="none">
<path d="M465 1450 l-410 -410 260 2 c143 0 240 4 215 7 -64 9 -76 36 -73 170
2 95 4 106 26 130 14 14 28 36 32 49 3 12 14 22 24 22 9 0 44 14 76 30 47 24
71 30 121 30 64 0 128 -20 137 -42 3 -7 6 85 6 205 1 119 0 217 -2 217 -1 0
-187 -184 -412 -410z"/>
<path d="M1062 1576 l3 -289 23 -8 c13 -5 21 -5 17 0 -3 5 1 12 7 15 7 3 2 3
-12 0 -23 -5 -24 -4 -5 7 11 7 24 18 28 26 5 9 29 13 72 13 62 0 67 -2 105
-40 38 -38 40 -42 40 -105 0 -41 -4 -65 -11 -65 -7 0 -10 -12 -7 -29 3 -21 0
-28 -11 -27 -9 1 -19 6 -23 11 -5 7 -8 6 -8 -1 0 -5 6 -18 13 -27 11 -16 38
-17 300 -15 l287 3 -410 410 -410 410 2 -289z"/>
<path d="M885 1146 c-40 -17 -90 -75 -105 -121 -28 -84 15 -186 93 -226 51
-27 138 -30 182 -7 135 71 141 267 11 343 -49 28 -130 34 -181 11z m129 -107
c15 -12 25 -28 22 -35 -3 -8 0 -13 7 -11 7 1 13 -12 15 -32 2 -21 0 -31 -7
-26 -6 3 -11 0 -11 -8 0 -7 -11 -19 -25 -25 -21 -10 -25 -19 -25 -52 0 -36 -2
-40 -25 -40 -22 0 -25 4 -25 38 0 30 -6 43 -29 59 -45 34 -45 67 -2 114 41 44
66 48 105 18z"/>
<path d="M70 882 c0 -4 182 -189 405 -412 l405 -405 0 291 0 291 -44 17 c-67
26 -131 88 -166 162 l-31 64 -285 0 c-156 0 -284 -3 -284 -8z"/>
</g>
</svg>
